<svg xmlns="http://www.w3.org/2000/svg" viewBox="0 0 512 512" fill="none">
  <defs>
    <linearGradient id="g" x1="0" y1="0" x2="1" y2="1">
      <stop offset="0%" stop-color="#8b5cf6"/>
      <stop offset="50%" stop-color="#ec4899"/>
      <stop offset="100%" stop-color="#f59e0b"/>
    </linearGradient>
    <linearGradient id="bg" x1="0" y1="0" x2="0" y2="1">
      <stop offset="0%" stop-color="#0a0a0c"/>
      <stop offset="100%" stop-color="#18181c"/>
    </linearGradient>
  </defs>
  <rect x="16" y="16" width="480" height="480" rx="112" fill="url(#bg)"/>
  <rect x="16" y="16" width="480" height="480" rx="112" fill="none" stroke="url(#g)" stroke-width="6" opacity="0.6"/>
  <!-- Journal pages -->
  <g transform="translate(96 96)">
    <rect x="0" y="20" width="260" height="320" rx="22" fill="#1a1a20" stroke="rgba(255,255,255,0.08)" stroke-width="2"/>
    <rect x="60" y="0" width="260" height="320" rx="22" fill="#23232b" stroke="rgba(255,255,255,0.12)" stroke-width="2"/>
    <!-- Lines -->
    <g stroke="rgba(255,255,255,0.10)" stroke-width="3" stroke-linecap="round">
      <line x1="90" y1="60"  x2="290" y2="60"/>
      <line x1="90" y1="100" x2="280" y2="100"/>
      <line x1="90" y1="140" x2="290" y2="140"/>
      <line x1="90" y1="180" x2="270" y2="180"/>
      <line x1="90" y1="220" x2="290" y2="220"/>
    </g>
    <!-- Sparkle / pen -->
    <g transform="translate(220 200) rotate(35)">
      <rect x="0" y="0" width="100" height="14" rx="7" fill="url(#g)"/>
      <polygon points="100,-8 124,7 100,22" fill="#f59e0b"/>
      <circle cx="6" cy="7" r="8" fill="#0a0a0c"/>
    </g>
  </g>
  <!-- Sparkles -->
  <g fill="url(#g)">
    <path d="M380 110 l4 12 12 4 -12 4 -4 12 -4 -12 -12 -4 12 -4z"/>
    <path d="M120 380 l3 9 9 3 -9 3 -3 9 -3 -9 -9 -3 9 -3z" opacity="0.8"/>
  </g>
</svg>
